<svg id="visual" viewBox="0 0 960 540" width="960" height="540" xmlns="http://www.w3.org/2000/svg" xmlns:xlink="http://www.w3.org/1999/xlink" version="1.1"><rect x="0" y="0" width="960" height="540" fill="#001220"></rect><defs><linearGradient id="grad1_0" x1="43.8%" y1="0%" x2="100%" y2="100%"><stop offset="14.444444444444446%" stop-color="#fbae3c" stop-opacity="1"></stop><stop offset="85.55555555555554%" stop-color="#fbae3c" stop-opacity="1"></stop></linearGradient></defs><defs><linearGradient id="grad1_1" x1="43.8%" y1="0%" x2="100%" y2="100%"><stop offset="14.444444444444446%" stop-color="#fbae3c" stop-opacity="1"></stop><stop offset="85.55555555555554%" stop-color="#f48350" stop-opacity="1"></stop></linearGradient></defs><defs><linearGradient id="grad1_2" x1="43.8%" y1="0%" x2="100%" y2="100%"><stop offset="14.444444444444446%" stop-color="#d96162" stop-opacity="1"></stop><stop offset="85.55555555555554%" stop-color="#f48350" stop-opacity="1"></stop></linearGradient></defs><defs><linearGradient id="grad1_3" x1="43.8%" y1="0%" x2="100%" y2="100%"><stop offset="14.444444444444446%" stop-color="#d96162" stop-opacity="1"></stop><stop offset="85.55555555555554%" stop-color="#af4b6d" stop-opacity="1"></stop></linearGradient></defs><defs><linearGradient id="grad1_4" x1="43.8%" y1="0%" x2="100%" y2="100%"><stop offset="14.444444444444446%" stop-color="#7c3e6b" stop-opacity="1"></stop><stop offset="85.55555555555554%" stop-color="#af4b6d" stop-opacity="1"></stop></linearGradient></defs><defs><linearGradient id="grad1_5" x1="43.8%" y1="0%" x2="100%" y2="100%"><stop offset="14.444444444444446%" stop-color="#7c3e6b" stop-opacity="1"></stop><stop offset="85.55555555555554%" stop-color="#49335c" stop-opacity="1"></stop></linearGradient></defs><defs><linearGradient id="grad1_6" x1="43.8%" y1="0%" x2="100%" y2="100%"><stop offset="14.444444444444446%" stop-color="#1d2540" stop-opacity="1"></stop><stop offset="85.55555555555554%" stop-color="#49335c" stop-opacity="1"></stop></linearGradient></defs><defs><linearGradient id="grad1_7" x1="43.8%" y1="0%" x2="100%" y2="100%"><stop offset="14.444444444444446%" stop-color="#1d2540" stop-opacity="1"></stop><stop offset="85.55555555555554%" stop-color="#001220" stop-opacity="1"></stop></linearGradient></defs><defs><linearGradient id="grad2_0" x1="0%" y1="0%" x2="56.3%" y2="100%"><stop offset="14.444444444444446%" stop-color="#fbae3c" stop-opacity="1"></stop><stop offset="85.55555555555554%" stop-color="#fbae3c" stop-opacity="1"></stop></linearGradient></defs><defs><linearGradient id="grad2_1" x1="0%" y1="0%" x2="56.3%" y2="100%"><stop offset="14.444444444444446%" stop-color="#f48350" stop-opacity="1"></stop><stop offset="85.55555555555554%" stop-color="#fbae3c" stop-opacity="1"></stop></linearGradient></defs><defs><linearGradient id="grad2_2" x1="0%" y1="0%" x2="56.3%" y2="100%"><stop offset="14.444444444444446%" stop-color="#f48350" stop-opacity="1"></stop><stop offset="85.55555555555554%" stop-color="#d96162" stop-opacity="1"></stop></linearGradient></defs><defs><linearGradient id="grad2_3" x1="0%" y1="0%" x2="56.3%" y2="100%"><stop offset="14.444444444444446%" stop-color="#af4b6d" stop-opacity="1"></stop><stop offset="85.55555555555554%" stop-color="#d96162" stop-opacity="1"></stop></linearGradient></defs><defs><linearGradient id="grad2_4" x1="0%" y1="0%" x2="56.3%" y2="100%"><stop offset="14.444444444444446%" stop-color="#af4b6d" stop-opacity="1"></stop><stop offset="85.55555555555554%" stop-color="#7c3e6b" stop-opacity="1"></stop></linearGradient></defs><defs><linearGradient id="grad2_5" x1="0%" y1="0%" x2="56.3%" y2="100%"><stop offset="14.444444444444446%" stop-color="#49335c" stop-opacity="1"></stop><stop offset="85.55555555555554%" stop-color="#7c3e6b" stop-opacity="1"></stop></linearGradient></defs><defs><linearGradient id="grad2_6" x1="0%" y1="0%" x2="56.3%" y2="100%"><stop offset="14.444444444444446%" stop-color="#49335c" stop-opacity="1"></stop><stop offset="85.55555555555554%" stop-color="#1d2540" stop-opacity="1"></stop></linearGradient></defs><defs><linearGradient id="grad2_7" x1="0%" y1="0%" x2="56.3%" y2="100%"><stop offset="14.444444444444446%" stop-color="#001220" stop-opacity="1"></stop><stop offset="85.55555555555554%" stop-color="#1d2540" stop-opacity="1"></stop></linearGradient></defs><g transform="translate(960, 0)"><path d="M0 405C-58.5 373.7 -117 342.5 -180.5 312.6C-244 282.8 -312.5 254.4 -350.7 202.5C-389 150.6 -397 75.3 -405 0L0 0Z" fill="#0c1c30"></path><path d="M0 354.4C-51.2 327 -102.4 299.7 -157.9 273.6C-213.5 247.4 -273.4 222.6 -306.9 177.2C-340.4 131.8 -347.4 65.9 -354.4 0L0 0Z" fill="#312c4f"></path><path d="M0 303.8C-43.9 280.3 -87.8 256.9 -135.4 234.5C-183 212.1 -234.4 190.8 -263.1 151.9C-291.7 113 -297.7 56.5 -303.7 0L0 0Z" fill="#623965"></path><path d="M0 253.1C-36.6 233.6 -73.1 214 -112.8 195.4C-152.5 176.7 -195.3 159 -219.2 126.6C-243.1 94.1 -248.1 47.1 -253.1 0L0 0Z" fill="#96446e"></path><path d="M0 202.5C-29.3 186.9 -58.5 171.2 -90.2 156.3C-122 141.4 -156.2 127.2 -175.4 101.3C-194.5 75.3 -198.5 37.7 -202.5 0L0 0Z" fill="#c55469"></path><path d="M0 151.9C-21.9 140.2 -43.9 128.4 -67.7 117.2C-91.5 106 -117.2 95.4 -131.5 75.9C-145.9 56.5 -148.9 28.2 -151.9 0L0 0Z" fill="#e9705a"></path><path d="M0 101.3C-14.6 93.4 -29.3 85.6 -45.1 78.2C-61 70.7 -78.1 63.6 -87.7 50.6C-97.2 37.7 -99.2 18.8 -101.2 0L0 0Z" fill="#fa9845"></path><path d="M0 50.6C-7.3 46.7 -14.6 42.8 -22.6 39.1C-30.5 35.3 -39.1 31.8 -43.8 25.3C-48.6 18.8 -49.6 9.4 -50.6 0L0 0Z" fill="#fbae3c"></path></g><g transform="translate(0, 540)"><path d="M0 -405C64.6 -384.4 129.3 -363.7 192 -332.6C254.7 -301.4 315.6 -259.7 350.7 -202.5C385.9 -145.3 395.5 -72.7 405 0L0 0Z" fill="#0c1c30"></path><path d="M0 -354.4C56.6 -336.3 113.1 -318.3 168 -291C222.9 -263.7 276.1 -227.2 306.9 -177.2C337.7 -127.2 346 -63.6 354.4 0L0 0Z" fill="#312c4f"></path><path d="M0 -303.7C48.5 -288.3 97 -272.8 144 -249.4C191 -226 236.7 -194.8 263.1 -151.9C289.4 -109 296.6 -54.5 303.8 0L0 0Z" fill="#623965"></path><path d="M0 -253.1C40.4 -240.2 80.8 -227.3 120 -207.8C159.2 -188.4 197.2 -162.3 219.2 -126.6C241.2 -90.8 247.2 -45.4 253.1 0L0 0Z" fill="#96446e"></path><path d="M0 -202.5C32.3 -192.2 64.6 -181.9 96 -166.3C127.4 -150.7 157.8 -129.8 175.4 -101.3C193 -72.7 197.7 -36.3 202.5 0L0 0Z" fill="#c55469"></path><path d="M0 -151.9C24.2 -144.1 48.5 -136.4 72 -124.7C95.5 -113 118.3 -97.4 131.5 -75.9C144.7 -54.5 148.3 -27.2 151.9 0L0 0Z" fill="#e9705a"></path><path d="M0 -101.2C16.2 -96.1 32.3 -90.9 48 -83.1C63.7 -75.3 78.9 -64.9 87.7 -50.6C96.5 -36.3 98.9 -18.2 101.3 0L0 0Z" fill="#fa9845"></path><path d="M0 -50.6C8.1 -48 16.2 -45.5 24 -41.6C31.8 -37.7 39.4 -32.5 43.8 -25.3C48.2 -18.2 49.4 -9.1 50.6 0L0 0Z" fill="#fbae3c"></path></g></svg>